<?xml version="1.0" standalone="no"?>
<!DOCTYPE svg PUBLIC "-//W3C//DTD SVG 20010904//EN"
 "http://www.w3.org/TR/2001/REC-SVG-20010904/DTD/svg10.dtd">
<svg version="1.0" xmlns="http://www.w3.org/2000/svg"
 width="300.000000pt" height="375.000000pt" viewBox="0 0 300.000000 375.000000"
 preserveAspectRatio="xMidYMid meet">
<metadata>
Created by potrace 1.10, written by Peter Selinger 2001-2011
</metadata>
<g transform="translate(0.000000,375.000000) scale(0.100000,-0.100000)"
fill="#226a80" stroke="none">
<path d="M1365 2885 c-301 -42 -554 -187 -726 -418 -274 -368 -288 -871 -35
-1251 297 -445 882 -602 1360 -365 277 138 485 395 561 694 162 632 -255 1250
-903 1339 -129 18 -136 18 -257 1z m280 -25 c86 -12 215 -50 215 -62 0 -5 5
-6 10 -3 6 3 10 2 10 -3 0 -5 19 -15 43 -22 199 -65 433 -304 534 -550 57
-138 73 -220 74 -396 1 -165 -9 -232 -52 -359 -25 -72 -118 -248 -143 -270 -7
-5 -28 -30 -47 -55 -71 -93 -213 -210 -306 -251 -18 -7 -33 -18 -33 -22 0 -5
-4 -5 -10 -2 -5 3 -10 2 -10 -3 0 -5 -48 -26 -107 -45 -385 -128 -802 -26
-1078 264 -154 163 -224 294 -282 534 -28 114 -18 388 16 470 5 11 14 40 21
65 31 119 143 304 239 393 27 26 47 47 43 47 -4 0 8 10 26 21 17 12 32 25 32
30 0 5 6 9 14 9 8 0 16 4 18 8 6 15 121 92 129 86 5 -3 9 -1 9 3 0 5 20 15 45
22 25 7 45 17 45 23 0 5 4 7 9 4 5 -4 11 -2 13 4 4 13 196 63 225 57 13 -2 26
0 29 4 7 12 182 11 269 -1z"/>
<path d="M1075 2322 c-98 -38 -160 -91 -199 -172 -25 -53 -55 -171 -56 -217 0
-13 -3 -23 -7 -23 -5 0 -9 -17 -10 -37 0 -21 -9 -90 -18 -153 -14 -96 -14
-124 -4 -170 42 -186 98 -237 252 -228 40 3 79 8 87 11 10 5 22 -4 38 -28 12
-19 27 -35 33 -35 21 0 138 125 143 152 2 15 9 35 14 44 12 21 4 53 -19 79
-15 17 -16 27 -8 63 8 36 59 344 76 458 7 44 -22 148 -49 180 -47 55 -97 77
-178 80 -41 2 -84 0 -95 -4z m182 -37 c80 -34 112 -92 113 -202 0 -75 -51
-425 -70 -480 -10 -28 -9 -37 9 -67 34 -54 28 -73 -43 -143 -36 -35 -70 -63
-75 -63 -6 0 -21 16 -33 35 -16 24 -28 33 -38 28 -8 -3 -49 -8 -91 -11 -98 -5
-155 17 -195 78 -42 63 -43 150 -5 391 39 249 57 301 123 368 73 74 213 104
305 66z m-354 -912 c34 -18 151 -24 200 -10 15 4 27 3 27 -2 0 -16 -92 -29
-150 -22 -49 6 -120 34 -120 46 0 8 10 6 43 -12z m316 -62 c-13 -10 -30 -16
-39 -13 -12 5 -11 7 5 10 11 2 24 8 30 13 5 5 13 9 18 9 5 0 -1 -8 -14 -19z"/>
<path d="M1073 2058 c-25 -32 -34 -66 -58 -212 -29 -179 -30 -196 -11 -221 17
-24 73 -23 98 2 31 32 92 388 72 421 -14 21 -86 29 -101 10z m72 -18 c4 -6 -9
-10 -32 -10 -28 0 -34 3 -23 10 20 13 47 13 55 0z m15 -37 c-1 -29 -52 -313
-61 -335 -12 -30 -43 -42 -71 -27 -23 12 -23 42 2 194 11 66 20 123 20 128 0
20 43 47 75 47 19 0 35 -3 35 -7z"/>
<path d="M1790 2322 c-133 -38 -226 -151 -245 -299 -8 -58 22 -178 59 -233
l24 -36 -68 -18 c-53 -13 -70 -22 -79 -42 -15 -34 -14 -95 4 -178 20 -95 53
-142 122 -173 47 -22 65 -25 127 -21 116 8 202 62 262 163 28 49 64 171 64
221 0 56 -31 133 -67 164 -18 16 -33 31 -33 34 0 2 17 7 38 11 55 10 80 30 88
70 3 19 10 38 15 41 13 8 11 72 -4 130 -15 59 -61 114 -121 144 -43 23 -142
34 -186 22z m145 -33 c56 -15 104 -54 126 -103 22 -49 26 -168 6 -184 -18 -16
-144 -45 -162 -38 -8 3 -15 18 -15 33 0 45 -26 73 -65 73 -38 0 -70 -34 -60
-62 3 -8 42 -36 86 -62 151 -90 184 -135 183 -251 0 -83 -31 -155 -96 -222
-61 -62 -125 -87 -223 -88 -147 0 -214 65 -223 214 -5 92 -4 94 99 122 69 19
74 19 86 3 7 -9 10 -21 7 -26 -9 -14 4 -54 22 -72 22 -22 66 -20 98 5 48 38
27 74 -72 124 -71 35 -138 98 -153 143 -29 88 -7 201 58 295 59 86 186 127
298 96z m-88 -255 c2 -7 -6 -10 -21 -7 -14 3 -23 10 -20 15 8 12 36 6 41 -8z
m17 -40 c9 -8 16 -22 16 -30 0 -12 -6 -11 -29 5 -16 12 -34 21 -40 21 -6 0
-11 5 -11 10 0 16 47 12 64 -6z m196 -33 c0 -9 -94 -41 -121 -41 -27 0 8 19
61 33 30 9 56 16 58 16 1 1 2 -3 2 -8z m-275 -265 c11 -8 16 -16 12 -16 -15 0
-83 39 -98 56 -11 14 -7 13 26 -4 22 -11 49 -27 60 -36z m15 -48 c0 -4 -6 -8
-14 -8 -8 0 -20 -2 -28 -5 -19 -7 -46 17 -54 50 l-7 28 52 -28 c28 -16 51 -32
51 -37z m96 -252 c-73 -60 -234 -73 -311 -26 -45 28 -41 36 6 13 25 -14 58
-18 129 -18 84 0 101 3 145 27 62 33 68 34 31 4z"/>
</g>
</svg>
