<?xml version="1.0" standalone="no"?>
<!DOCTYPE svg PUBLIC "-//W3C//DTD SVG 20010904//EN"
 "http://www.w3.org/TR/2001/REC-SVG-20010904/DTD/svg10.dtd">
<svg version="1.0" xmlns="http://www.w3.org/2000/svg"
 width="300.000000pt" height="375.000000pt" viewBox="0 0 300.000000 375.000000"
 preserveAspectRatio="xMidYMid meet">
<metadata>
Created by potrace 1.10, written by Peter Selinger 2001-2011
</metadata>
<g transform="translate(0.000000,375.000000) scale(0.100000,-0.100000)"
fill="#226a80" stroke="none">
<path d="M1303 2876 c-692 -132 -1077 -880 -778 -1513 60 -127 106 -193 205
-296 122 -128 261 -216 425 -271 376 -126 796 -29 1079 249 390 381 434 988
103 1427 -141 187 -350 326 -587 388 -108 28 -339 36 -447 16z m-46 -591 c67
-28 104 -80 117 -163 7 -46 -43 -406 -69 -498 -14 -50 -14 -54 9 -95 22 -38
23 -45 11 -69 -20 -38 -111 -120 -134 -120 -12 0 -27 13 -38 30 -12 21 -22 28
-33 24 -8 -4 -49 -9 -91 -12 -185 -10 -256 95 -223 328 41 298 53 354 91 429
41 80 85 123 149 146 53 19 166 19 211 0z m701 0 c74 -31 118 -96 127 -187 9
-80 -5 -99 -92 -122 -85 -22 -103 -18 -103 24 0 64 -82 96 -116 45 -16 -24
-15 -27 0 -44 10 -11 52 -39 95 -64 43 -25 94 -64 113 -87 87 -101 71 -253
-37 -369 -64 -69 -129 -95 -230 -96 -69 0 -86 4 -127 27 -64 38 -98 107 -98
198 0 81 8 91 104 114 79 19 87 16 92 -41 5 -68 74 -94 126 -46 38 34 14 71
-80 118 -85 42 -139 98 -158 162 -41 140 47 320 180 367 55 19 158 20 204 1z"/>
<path d="M1065 2048 c-21 -31 -30 -69 -56 -241 -25 -171 -21 -197 31 -197 71
0 84 29 121 268 26 172 22 192 -40 192 -30 0 -44 -6 -56 -22z"/>
</g>
</svg>
